<svg xmlns="http://www.w3.org/2000/svg" viewBox="0 0 104 42" width="104" height="42" style="width: 100%; height: 100%; transform: translate3d(0px, 0px, 0px);" preserveAspectRatio="xMidYMid meet"><defs><clipPath id="__lottie_element_41"><rect width="104" height="42" x="0" y="0"></rect></clipPath></defs><g clip-path="url(#__lottie_element_41)"><g style="display: block;" transform="matrix(1,0,0,1,0,0)" opacity="1"><g opacity="1" transform="matrix(1,0,0,1,0,0)"><path fill="rgb(27,27,27)" fill-opacity="1" d=" M8.84296989440918,0.04731310158967972 C3.0574100017547607,5.819240093231201 0,13.246999740600586 0,20.95870018005371 C0,29.096200942993164 3.1044399738311768,36.997100830078125 8.795929908752441,41.87009811401367 C9.078149795532227,41.87009811401367 9.971850395202637,41.065799713134766 9.971850395202637,40.82929992675781 C6.1618499755859375,35.152000427246094 4.04518985748291,27.771499633789062 4.04518985748291,20.864099502563477 C4.04518985748291,14.003999710083008 6.1618499755859375,6.670839786529541 9.971850395202637,0.8989059925079346 C9.971850395202637,0.6623520255088806 9.125189781188965,0.04731310158967972 8.84296989440918,0.04731310158967972z"></path><path stroke-linecap="square" stroke-linejoin="miter" fill-opacity="0" stroke-miterlimit="1" stroke="rgb(0,0,0)" stroke-opacity="0" stroke-width="0" d=" M8.84296989440918,0.04731310158967972 C3.0574100017547607,5.819240093231201 0,13.246999740600586 0,20.95870018005371 C0,29.096200942993164 3.1044399738311768,36.997100830078125 8.795929908752441,41.87009811401367 C9.078149795532227,41.87009811401367 9.971850395202637,41.065799713134766 9.971850395202637,40.82929992675781 C6.1618499755859375,35.152000427246094 4.04518985748291,27.771499633789062 4.04518985748291,20.864099502563477 C4.04518985748291,14.003999710083008 6.1618499755859375,6.670839786529541 9.971850395202637,0.8989059925079346 C9.971850395202637,0.6623520255088806 9.125189781188965,0.04731310158967972 8.84296989440918,0.04731310158967972z"></path></g><g opacity="1" transform="matrix(1,0,0,1,0,0)"><path fill="rgb(27,27,27)" fill-opacity="1" d=" M20.261199951171875,0 C18.473800659179688,0 17.01569938659668,1.4666399955749512 17.01569938659668,3.2644500732421875 C17.01569938659668,5.062270164489746 18.473800659179688,6.528900146484375 20.261199951171875,6.528900146484375 C22.048599243164062,6.528900146484375 23.506799697875977,5.062270164489746 23.506799697875977,3.2644500732421875 C23.506799697875977,1.4666399955749512 22.048599243164062,0 20.261199951171875,0z M15.22819995880127,14.571800231933594 C15.0871000289917,14.713700294494629 15.0871000289917,15.707200050354004 15.22819995880127,15.849100112915039 C17.344900131225586,16.700700759887695 17.39189910888672,16.937299728393555 17.39189910888672,18.59320068359375 C17.39189910888672,18.59320068359375 17.39189910888672,28.764999389648438 17.39189910888672,28.764999389648438 C17.39189910888672,31.130599975585938 16.780500411987305,31.319799423217773 15.651599884033203,31.414400100708008 C15.651599884033203,31.414400100708008 14.710800170898438,31.461700439453125 14.710800170898438,31.461700439453125 C14.522700309753418,31.650999069213867 14.522700309753418,32.881099700927734 14.710800170898438,33.02299880981445 C16.404199600219727,32.92839813232422 18.332700729370117,32.881099700927734 20.355300903320312,32.881099700927734 C22.330799102783203,32.881099700927734 24.165300369262695,32.92839813232422 25.811599731445312,33.02299880981445 C25.99970054626465,32.881099700927734 25.99970054626465,31.650999069213867 25.811599731445312,31.461700439453125 C25.811599731445312,31.461700439453125 25.05900001525879,31.414400100708008 25.05900001525879,31.414400100708008 C23.694900512695312,31.319799423217773 23.036399841308594,31.130599975585938 23.036399841308594,28.90690040588379 C23.036399841308594,28.90690040588379 23.036399841308594,18.403900146484375 23.036399841308594,18.403900146484375 C23.036399841308594,17.315799713134766 23.13050079345703,13.05780029296875 23.13050079345703,12.395500183105469 C23.13050079345703,12.064299583435059 22.895299911499023,11.827699661254883 22.613100051879883,11.827699661254883 C22.28380012512207,11.827699661254883 20.684499740600586,12.679300308227539 19.50860023498535,13.152400016784668 C18.191600799560547,13.672800064086914 16.592300415039062,14.240599632263184 15.22819995880127,14.571800231933594z"></path><path stroke-linecap="square" stroke-linejoin="miter" fill-opacity="0" stroke-miterlimit="1" stroke="rgb(0,0,0)" stroke-opacity="0" stroke-width="0" d=" M20.261199951171875,0 C18.473800659179688,0 17.01569938659668,1.4666399955749512 17.01569938659668,3.2644500732421875 C17.01569938659668,5.062270164489746 18.473800659179688,6.528900146484375 20.261199951171875,6.528900146484375 C22.048599243164062,6.528900146484375 23.506799697875977,5.062270164489746 23.506799697875977,3.2644500732421875 C23.506799697875977,1.4666399955749512 22.048599243164062,0 20.261199951171875,0z M15.22819995880127,14.571800231933594 C15.0871000289917,14.713700294494629 15.0871000289917,15.707200050354004 15.22819995880127,15.849100112915039 C17.344900131225586,16.700700759887695 17.39189910888672,16.937299728393555 17.39189910888672,18.59320068359375 C17.39189910888672,18.59320068359375 17.39189910888672,28.764999389648438 17.39189910888672,28.764999389648438 C17.39189910888672,31.130599975585938 16.780500411987305,31.319799423217773 15.651599884033203,31.414400100708008 C15.651599884033203,31.414400100708008 14.710800170898438,31.461700439453125 14.710800170898438,31.461700439453125 C14.522700309753418,31.650999069213867 14.522700309753418,32.881099700927734 14.710800170898438,33.02299880981445 C16.404199600219727,32.92839813232422 18.332700729370117,32.881099700927734 20.355300903320312,32.881099700927734 C22.330799102783203,32.881099700927734 24.165300369262695,32.92839813232422 25.811599731445312,33.02299880981445 C25.99970054626465,32.881099700927734 25.99970054626465,31.650999069213867 25.811599731445312,31.461700439453125 C25.811599731445312,31.461700439453125 25.05900001525879,31.414400100708008 25.05900001525879,31.414400100708008 C23.694900512695312,31.319799423217773 23.036399841308594,31.130599975585938 23.036399841308594,28.90690040588379 C23.036399841308594,28.90690040588379 23.036399841308594,18.403900146484375 23.036399841308594,18.403900146484375 C23.036399841308594,17.315799713134766 23.13050079345703,13.05780029296875 23.13050079345703,12.395500183105469 C23.13050079345703,12.064299583435059 22.895299911499023,11.827699661254883 22.613100051879883,11.827699661254883 C22.28380012512207,11.827699661254883 20.684499740600586,12.679300308227539 19.50860023498535,13.152400016784668 C18.191600799560547,13.672800064086914 16.592300415039062,14.240599632263184 15.22819995880127,14.571800231933594z"></path></g><g opacity="1" transform="matrix(1,0,0,1,0,0)"><path fill="rgb(27,27,27)" fill-opacity="1" d=" M33.98460006713867,25.83169937133789 C31.915000915527344,25.83169937133789 30.22170066833496,27.534900665283203 30.22170066833496,29.616600036621094 C30.22170066833496,31.698299407958984 31.915000915527344,33.4015007019043 33.98460006713867,33.4015007019043 C36.054298400878906,33.4015007019043 37.74760055541992,31.698299407958984 37.74760055541992,29.616600036621094 C37.74760055541992,27.534900665283203 36.054298400878906,25.83169937133789 33.98460006713867,25.83169937133789z"></path><path stroke-linecap="square" stroke-linejoin="miter" fill-opacity="0" stroke-miterlimit="1" stroke="rgb(0,0,0)" stroke-opacity="0" stroke-width="0" d=" M33.98460006713867,25.83169937133789 C31.915000915527344,25.83169937133789 30.22170066833496,27.534900665283203 30.22170066833496,29.616600036621094 C30.22170066833496,31.698299407958984 31.915000915527344,33.4015007019043 33.98460006713867,33.4015007019043 C36.054298400878906,33.4015007019043 37.74760055541992,31.698299407958984 37.74760055541992,29.616600036621094 C37.74760055541992,27.534900665283203 36.054298400878906,25.83169937133789 33.98460006713867,25.83169937133789z"></path></g><g opacity="1" transform="matrix(1,0,0,1,0,0)"><path fill="rgb(27,27,27)" fill-opacity="1" d=" M47.584598541259766,18.640499114990234 C47.91379928588867,16.46419906616211 49.46609878540039,14.051300048828125 51.9119987487793,14.051300048828125 C53.74639892578125,14.051300048828125 54.78129959106445,15.659899711608887 54.78129959106445,17.363100051879883 C54.78129959106445,18.498600006103516 54.45199966430664,18.73509979248047 53.69940185546875,18.829700469970703 C53.08789825439453,18.924400329589844 52.288299560546875,18.97170066833496 50.68899917602539,18.97170066833496 C50.68899917602539,18.97170066833496 47.91379928588867,18.97170066833496 47.91379928588867,18.97170066833496 C47.63159942626953,18.97170066833496 47.584598541259766,18.73509979248047 47.584598541259766,18.640499114990234z M58.77939987182617,20.769500732421875 C59.15570068359375,20.769500732421875 59.43790054321289,20.627500534057617 59.6260986328125,20.391000747680664 C59.81420135498047,20.20170021057129 59.86130142211914,19.965200424194336 59.86130142211914,19.728599548339844 C59.86130142211914,15.565299987792969 57.3213005065918,12.158900260925293 52.47639846801758,12.158900260925293 C46.36159896850586,12.158900260925293 42.2224006652832,17.363100051879883 42.2224006652832,23.32430076599121 C42.2224006652832,28.5757999420166 45.51499938964844,33.543399810791016 51.629798889160156,33.543399810791016 C55.01639938354492,33.543399810791016 58.35609817504883,31.603700637817383 60.28459930419922,27.913400650024414 C60.28459930419922,27.534900665283203 59.53200149536133,26.872600555419922 59.29679870605469,26.91990089416504 C57.88570022583008,28.859600067138672 56.09830093383789,29.38010025024414 54.3109016418457,29.38010025024414 C49.56010055541992,29.38010025024414 47.396400451660156,25.358600616455078 47.396400451660156,21.76300048828125 C47.396400451660156,21.006000518798828 47.584598541259766,20.769500732421875 48.38420104980469,20.769500732421875 C48.38420104980469,20.769500732421875 58.77939987182617,20.769500732421875 58.77939987182617,20.769500732421875z"></path><path stroke-linecap="square" stroke-linejoin="miter" fill-opacity="0" stroke-miterlimit="1" stroke="rgb(0,0,0)" stroke-opacity="0" stroke-width="0" d=" M47.584598541259766,18.640499114990234 C47.91379928588867,16.46419906616211 49.46609878540039,14.051300048828125 51.9119987487793,14.051300048828125 C53.74639892578125,14.051300048828125 54.78129959106445,15.659899711608887 54.78129959106445,17.363100051879883 C54.78129959106445,18.498600006103516 54.45199966430664,18.73509979248047 53.69940185546875,18.829700469970703 C53.08789825439453,18.924400329589844 52.288299560546875,18.97170066833496 50.68899917602539,18.97170066833496 C50.68899917602539,18.97170066833496 47.91379928588867,18.97170066833496 47.91379928588867,18.97170066833496 C47.63159942626953,18.97170066833496 47.584598541259766,18.73509979248047 47.584598541259766,18.640499114990234z M58.77939987182617,20.769500732421875 C59.15570068359375,20.769500732421875 59.43790054321289,20.627500534057617 59.6260986328125,20.391000747680664 C59.81420135498047,20.20170021057129 59.86130142211914,19.965200424194336 59.86130142211914,19.728599548339844 C59.86130142211914,15.565299987792969 57.3213005065918,12.158900260925293 52.47639846801758,12.158900260925293 C46.36159896850586,12.158900260925293 42.2224006652832,17.363100051879883 42.2224006652832,23.32430076599121 C42.2224006652832,28.5757999420166 45.51499938964844,33.543399810791016 51.629798889160156,33.543399810791016 C55.01639938354492,33.543399810791016 58.35609817504883,31.603700637817383 60.28459930419922,27.913400650024414 C60.28459930419922,27.534900665283203 59.53200149536133,26.872600555419922 59.29679870605469,26.91990089416504 C57.88570022583008,28.859600067138672 56.09830093383789,29.38010025024414 54.3109016418457,29.38010025024414 C49.56010055541992,29.38010025024414 47.396400451660156,25.358600616455078 47.396400451660156,21.76300048828125 C47.396400451660156,21.006000518798828 47.584598541259766,20.769500732421875 48.38420104980469,20.769500732421875 C48.38420104980469,20.769500732421875 58.77939987182617,20.769500732421875 58.77939987182617,20.769500732421875z"></path></g><g opacity="1" transform="matrix(1,0,0,1,0,0)"><path fill="rgb(27,27,27)" fill-opacity="1" d=" M68.52749633789062,25.83169937133789 C66.45780181884766,25.83169937133789 64.7645034790039,27.534900665283203 64.7645034790039,29.616600036621094 C64.7645034790039,31.698299407958984 66.45780181884766,33.4015007019043 68.52749633789062,33.4015007019043 C70.59709930419922,33.4015007019043 72.29039764404297,31.698299407958984 72.29039764404297,29.616600036621094 C72.29039764404297,27.534900665283203 70.59709930419922,25.83169937133789 68.52749633789062,25.83169937133789z"></path><path stroke-linecap="square" stroke-linejoin="miter" fill-opacity="0" stroke-miterlimit="1" stroke="rgb(0,0,0)" stroke-opacity="0" stroke-width="0" d=" M68.52749633789062,25.83169937133789 C66.45780181884766,25.83169937133789 64.7645034790039,27.534900665283203 64.7645034790039,29.616600036621094 C64.7645034790039,31.698299407958984 66.45780181884766,33.4015007019043 68.52749633789062,33.4015007019043 C70.59709930419922,33.4015007019043 72.29039764404297,31.698299407958984 72.29039764404297,29.616600036621094 C72.29039764404297,27.534900665283203 70.59709930419922,25.83169937133789 68.52749633789062,25.83169937133789z"></path></g><g opacity="1" transform="matrix(1,0,0,1,0,0)"><path fill="rgb(27,27,27)" fill-opacity="1" d=" M78.31739807128906,39.977699279785156 C82.6447982788086,38.88949966430664 86.36070251464844,36.00360107421875 86.36070251464844,31.08329963684082 C86.36070251464844,27.487600326538086 84.1969985961914,25.31130027770996 81.65699768066406,25.31130027770996 C79.72850036621094,25.31130027770996 78.22329711914062,26.872600555419922 78.22329711914062,28.670400619506836 C78.22329711914062,29.853200912475586 78.83480072021484,30.56279945373535 79.54039764404297,30.893999099731445 C80.76329803466797,31.461700439453125 82.40959930419922,31.79290008544922 82.40959930419922,33.92190170288086 C82.40959930419922,36.42940139770508 79.6343994140625,37.94329833984375 77.65889739990234,38.55839920043945 C77.42369842529297,38.74760055541992 77.89409637451172,39.93040084838867 78.31739807128906,39.977699279785156z"></path><path stroke-linecap="square" stroke-linejoin="miter" fill-opacity="0" stroke-miterlimit="1" stroke="rgb(0,0,0)" stroke-opacity="0" stroke-width="0" d=" M78.31739807128906,39.977699279785156 C82.6447982788086,38.88949966430664 86.36070251464844,36.00360107421875 86.36070251464844,31.08329963684082 C86.36070251464844,27.487600326538086 84.1969985961914,25.31130027770996 81.65699768066406,25.31130027770996 C79.72850036621094,25.31130027770996 78.22329711914062,26.872600555419922 78.22329711914062,28.670400619506836 C78.22329711914062,29.853200912475586 78.83480072021484,30.56279945373535 79.54039764404297,30.893999099731445 C80.76329803466797,31.461700439453125 82.40959930419922,31.79290008544922 82.40959930419922,33.92190170288086 C82.40959930419922,36.42940139770508 79.6343994140625,37.94329833984375 77.65889739990234,38.55839920043945 C77.42369842529297,38.74760055541992 77.89409637451172,39.93040084838867 78.31739807128906,39.977699279785156z"></path></g><g opacity="1" transform="matrix(1,0,0,1,0,0)"><path fill="rgb(27,27,27)" fill-opacity="1" d=" M95.15699768066406,0.04731310158967972 C94.87480163574219,0.04731310158967972 94.0281982421875,0.6623520255088806 94.0281982421875,0.8989059925079346 C97.83820343017578,6.670839786529541 99.95480346679688,14.003999710083008 99.95480346679688,20.864099502563477 C99.95480346679688,27.771499633789062 97.83820343017578,35.152000427246094 94.0281982421875,40.82929992675781 C94.0281982421875,41.065799713134766 94.92179870605469,41.87009811401367 95.2041015625,41.87009811401367 C100.89600372314453,36.997100830078125 104,29.096200942993164 104,20.95870018005371 C104,13.246999740600586 100.94300079345703,5.819240093231201 95.15699768066406,0.04731310158967972z"></path><path stroke-linecap="square" stroke-linejoin="miter" fill-opacity="0" stroke-miterlimit="1" stroke="rgb(0,0,0)" stroke-opacity="0" stroke-width="0" d=" M95.15699768066406,0.04731310158967972 C94.87480163574219,0.04731310158967972 94.0281982421875,0.6623520255088806 94.0281982421875,0.8989059925079346 C97.83820343017578,6.670839786529541 99.95480346679688,14.003999710083008 99.95480346679688,20.864099502563477 C99.95480346679688,27.771499633789062 97.83820343017578,35.152000427246094 94.0281982421875,40.82929992675781 C94.0281982421875,41.065799713134766 94.92179870605469,41.87009811401367 95.2041015625,41.87009811401367 C100.89600372314453,36.997100830078125 104,29.096200942993164 104,20.95870018005371 C104,13.246999740600586 100.94300079345703,5.819240093231201 95.15699768066406,0.04731310158967972z"></path></g></g></g></svg>